<?xml version="1.0" encoding="UTF-8"?>
<svg xmlns="http://www.w3.org/2000/svg" viewBox="0 0 800 560" role="img" aria-labelledby="title desc">
<title id="title">Kanjibhai Residence 07</title><desc id="desc">Jali screen and terrace</desc>
<defs><linearGradient id="v" x1="0" y1="0" x2="1" y2="1"><stop offset="0" stop-color="#ffffff" stop-opacity="0.16"/><stop offset="1" stop-color="#000000" stop-opacity="0.16"/></linearGradient></defs>
<rect width="800" height="560" fill="#d9d5ca"/><rect width="800" height="278" fill="#bfc7c3"/><circle cx="206" cy="139" r="0.8" fill="#f4efe6" opacity="0.18"/><circle cx="279" cy="180" r="1.8" fill="#f4efe6" opacity="0.29"/><circle cx="352" cy="51" r="2.8" fill="#f4efe6" opacity="0.4"/><circle cx="425" cy="92" r="0.8" fill="#f4efe6" opacity="0.51"/><circle cx="498" cy="133" r="1.8" fill="#f4efe6" opacity="0.18"/><circle cx="571" cy="174" r="2.8" fill="#f4efe6" opacity="0.29"/><circle cx="644" cy="45" r="0.8" fill="#f4efe6" opacity="0.4"/><circle cx="717" cy="86" r="1.8" fill="#f4efe6" opacity="0.51"/><circle cx="60" cy="127" r="2.8" fill="#f4efe6" opacity="0.18"/><circle cx="133" cy="168" r="0.8" fill="#f4efe6" opacity="0.29"/><circle cx="206" cy="39" r="1.8" fill="#f4efe6" opacity="0.4"/><circle cx="279" cy="80" r="2.8" fill="#f4efe6" opacity="0.51"/><circle cx="352" cy="121" r="0.8" fill="#f4efe6" opacity="0.18"/><circle cx="425" cy="162" r="1.8" fill="#f4efe6" opacity="0.29"/><circle cx="498" cy="33" r="2.8" fill="#f4efe6" opacity="0.4"/><circle cx="571" cy="74" r="0.8" fill="#f4efe6" opacity="0.51"/><circle cx="644" cy="115" r="1.8" fill="#f4efe6" opacity="0.18"/><circle cx="717" cy="156" r="2.8" fill="#f4efe6" opacity="0.29"/><circle cx="60" cy="27" r="0.8" fill="#f4efe6" opacity="0.4"/><circle cx="133" cy="68" r="1.8" fill="#f4efe6" opacity="0.51"/><circle cx="206" cy="109" r="2.8" fill="#f4efe6" opacity="0.18"/><circle cx="279" cy="150" r="0.8" fill="#f4efe6" opacity="0.29"/><circle cx="352" cy="191" r="1.8" fill="#f4efe6" opacity="0.4"/><circle cx="425" cy="62" r="2.8" fill="#f4efe6" opacity="0.51"/><circle cx="498" cy="103" r="0.8" fill="#f4efe6" opacity="0.18"/><circle cx="571" cy="144" r="1.8" fill="#f4efe6" opacity="0.29"/><circle cx="644" cy="185" r="2.8" fill="#f4efe6" opacity="0.4"/><circle cx="717" cy="56" r="0.8" fill="#f4efe6" opacity="0.51"/><circle cx="60" cy="97" r="1.8" fill="#f4efe6" opacity="0.18"/><circle cx="133" cy="138" r="2.8" fill="#f4efe6" opacity="0.29"/><circle cx="206" cy="179" r="0.8" fill="#f4efe6" opacity="0.4"/><circle cx="279" cy="50" r="1.8" fill="#f4efe6" opacity="0.51"/><circle cx="352" cy="91" r="2.8" fill="#f4efe6" opacity="0.18"/><circle cx="425" cy="132" r="0.8" fill="#f4efe6" opacity="0.29"/><circle cx="498" cy="173" r="1.8" fill="#f4efe6" opacity="0.4"/><circle cx="571" cy="44" r="2.8" fill="#f4efe6" opacity="0.51"/><circle cx="644" cy="85" r="0.8" fill="#f4efe6" opacity="0.18"/><circle cx="717" cy="126" r="1.8" fill="#f4efe6" opacity="0.29"/><path d="M0 405 C145 360 280 388 402 338 C546 280 665 318 800 270 L800 560 L0 560 Z" fill="#363833" opacity="0.35"/><rect x="172" y="122" width="454" height="300" fill="#f4efe6" opacity="0.13"/><rect x="202" y="104" width="396" height="318" fill="#363833" opacity="0.9"/><rect x="234" y="142" width="330" height="280" fill="#d9d5ca" opacity="0.94"/><rect x="210" y="132" width="8" height="285" fill="#9c8159" opacity="0.42"/><rect x="252" y="132" width="8" height="285" fill="#9c8159" opacity="0.54"/><rect x="294" y="132" width="8" height="285" fill="#9c8159" opacity="0.6599999999999999"/><rect x="336" y="132" width="8" height="285" fill="#9c8159" opacity="0.42"/><rect x="378" y="132" width="8" height="285" fill="#9c8159" opacity="0.54"/><rect x="420" y="132" width="8" height="285" fill="#9c8159" opacity="0.6599999999999999"/><rect x="462" y="132" width="8" height="285" fill="#9c8159" opacity="0.42"/><rect x="504" y="132" width="8" height="285" fill="#9c8159" opacity="0.54"/><rect x="546" y="132" width="8" height="285" fill="#9c8159" opacity="0.6599999999999999"/><rect x="245" y="178" width="42" height="58" fill="#363833" opacity="0.5"/><line x1="266" y1="178" x2="266" y2="236" stroke="#363833" opacity="0.35"/><rect x="321" y="178" width="42" height="58" fill="#fff1bf" opacity="0.82"/><line x1="342" y1="178" x2="342" y2="236" stroke="#363833" opacity="0.35"/><rect x="397" y="178" width="42" height="58" fill="#fff1bf" opacity="0.82"/><line x1="418" y1="178" x2="418" y2="236" stroke="#363833" opacity="0.35"/><rect x="473" y="178" width="42" height="58" fill="#363833" opacity="0.5"/><line x1="494" y1="178" x2="494" y2="236" stroke="#363833" opacity="0.35"/><rect x="549" y="178" width="42" height="58" fill="#fff1bf" opacity="0.82"/><line x1="570" y1="178" x2="570" y2="236" stroke="#363833" opacity="0.35"/><rect x="245" y="286" width="42" height="58" fill="#fff1bf" opacity="0.82"/><line x1="266" y1="286" x2="266" y2="344" stroke="#363833" opacity="0.35"/><rect x="321" y="286" width="42" height="58" fill="#363833" opacity="0.5"/><line x1="342" y1="286" x2="342" y2="344" stroke="#363833" opacity="0.35"/><rect x="397" y="286" width="42" height="58" fill="#fff1bf" opacity="0.82"/><line x1="418" y1="286" x2="418" y2="344" stroke="#363833" opacity="0.35"/><rect x="473" y="286" width="42" height="58" fill="#fff1bf" opacity="0.82"/><line x1="494" y1="286" x2="494" y2="344" stroke="#363833" opacity="0.35"/><rect x="549" y="286" width="42" height="58" fill="#363833" opacity="0.5"/><line x1="570" y1="286" x2="570" y2="344" stroke="#363833" opacity="0.35"/><rect x="184" y="418" width="430" height="28" fill="#9c8159"/><rect x="132" y="445" width="536" height="42" fill="#363833"/><line x1="86" y1="488" x2="714" y2="488" stroke="#9c8159" stroke-width="3" opacity="0.72"/><rect width="800" height="560" fill="url(#v)"/><rect x="28" y="28" width="744" height="504" fill="none" stroke="#9c8159" stroke-opacity="0.35"/><text x="52" y="494" fill="#f4efe6" font-family="Inter, Arial, sans-serif" font-size="28" font-weight="600">Kanjibhai Residence 07</text><text x="52" y="522" fill="#9c8159" font-family="JetBrains Mono, Consolas, monospace" font-size="14" letter-spacing="2">JALI SCREEN AND TERRACE</text>
</svg>