<?xml version="1.0" encoding="UTF-8"?>
<svg xmlns="http://www.w3.org/2000/svg" viewBox="0 0 800 560" role="img" aria-labelledby="title desc">
<title id="title">Material Study Board</title><desc id="desc">Stone / marble / teak / brass</desc>
<defs><linearGradient id="v" x1="0" y1="0" x2="1" y2="1"><stop offset="0" stop-color="#ffffff" stop-opacity="0.16"/><stop offset="1" stop-color="#000000" stop-opacity="0.16"/></linearGradient></defs>
<rect width="800" height="560" fill="#d9d5ca"/><rect x="70" y="70" width="180" height="180" fill="#9c8159"/><rect x="285" y="70" width="190" height="180" fill="#f4efe6" opacity="0.82"/><rect x="510" y="70" width="220" height="180" fill="#fff1bf" opacity="0.7"/><rect x="70" y="288" width="270" height="170" fill="#363833" opacity="0.78"/><rect x="374" y="288" width="158" height="170" fill="#9c8159" opacity="0.58"/><rect x="566" y="288" width="164" height="170" fill="#f4efe6" opacity="0.5"/><line x1="85" y1="80" x2="65" y2="250" stroke="#363833" opacity="0.18"/><line x1="120" y1="80" x2="100" y2="250" stroke="#363833" opacity="0.18"/><line x1="155" y1="80" x2="135" y2="250" stroke="#363833" opacity="0.18"/><line x1="190" y1="80" x2="170" y2="250" stroke="#363833" opacity="0.18"/><line x1="225" y1="80" x2="205" y2="250" stroke="#363833" opacity="0.18"/><line x1="260" y1="80" x2="240" y2="250" stroke="#363833" opacity="0.18"/><line x1="295" y1="80" x2="275" y2="250" stroke="#363833" opacity="0.18"/><line x1="330" y1="80" x2="310" y2="250" stroke="#363833" opacity="0.18"/><line x1="365" y1="80" x2="345" y2="250" stroke="#363833" opacity="0.18"/><line x1="400" y1="80" x2="380" y2="250" stroke="#363833" opacity="0.18"/><line x1="435" y1="80" x2="415" y2="250" stroke="#363833" opacity="0.18"/><line x1="470" y1="80" x2="450" y2="250" stroke="#363833" opacity="0.18"/><line x1="505" y1="80" x2="485" y2="250" stroke="#363833" opacity="0.18"/><line x1="540" y1="80" x2="520" y2="250" stroke="#363833" opacity="0.18"/><line x1="575" y1="80" x2="555" y2="250" stroke="#363833" opacity="0.18"/><line x1="610" y1="80" x2="590" y2="250" stroke="#363833" opacity="0.18"/><line x1="645" y1="80" x2="625" y2="250" stroke="#363833" opacity="0.18"/><line x1="680" y1="80" x2="660" y2="250" stroke="#363833" opacity="0.18"/><rect width="800" height="560" fill="url(#v)"/><rect x="28" y="28" width="744" height="504" fill="none" stroke="#9c8159" stroke-opacity="0.35"/><text x="52" y="494" fill="#f4efe6" font-family="Inter, Arial, sans-serif" font-size="28" font-weight="600">Material Study Board</text><text x="52" y="522" fill="#9c8159" font-family="JetBrains Mono, Consolas, monospace" font-size="14" letter-spacing="2">STONE / MARBLE / TEAK / BRASS</text>
</svg>