<?xml version="1.0" encoding="UTF-8"?>
<svg xmlns="http://www.w3.org/2000/svg" viewBox="0 0 800 560" role="img" aria-labelledby="title desc">
<title id="title">Timber Screen Villa</title><desc id="desc">Contemporary day view</desc>
<defs><linearGradient id="v" x1="0" y1="0" x2="1" y2="1"><stop offset="0" stop-color="#ffffff" stop-opacity="0.16"/><stop offset="1" stop-color="#000000" stop-opacity="0.16"/></linearGradient></defs>
<rect width="800" height="560" fill="#d9d5ca"/><rect width="800" height="278" fill="#bfc7c3"/><circle cx="168" cy="113" r="0.8" fill="#f4efe6" opacity="0.18"/><circle cx="241" cy="154" r="1.8" fill="#f4efe6" opacity="0.29"/><circle cx="314" cy="25" r="2.8" fill="#f4efe6" opacity="0.4"/><circle cx="387" cy="66" r="0.8" fill="#f4efe6" opacity="0.51"/><circle cx="460" cy="107" r="1.8" fill="#f4efe6" opacity="0.18"/><circle cx="533" cy="148" r="2.8" fill="#f4efe6" opacity="0.29"/><circle cx="606" cy="189" r="0.8" fill="#f4efe6" opacity="0.4"/><circle cx="679" cy="60" r="1.8" fill="#f4efe6" opacity="0.51"/><circle cx="752" cy="101" r="2.8" fill="#f4efe6" opacity="0.18"/><circle cx="95" cy="142" r="0.8" fill="#f4efe6" opacity="0.29"/><circle cx="168" cy="183" r="1.8" fill="#f4efe6" opacity="0.4"/><circle cx="241" cy="54" r="2.8" fill="#f4efe6" opacity="0.51"/><circle cx="314" cy="95" r="0.8" fill="#f4efe6" opacity="0.18"/><circle cx="387" cy="136" r="1.8" fill="#f4efe6" opacity="0.29"/><circle cx="460" cy="177" r="2.8" fill="#f4efe6" opacity="0.4"/><circle cx="533" cy="48" r="0.8" fill="#f4efe6" opacity="0.51"/><circle cx="606" cy="89" r="1.8" fill="#f4efe6" opacity="0.18"/><circle cx="679" cy="130" r="2.8" fill="#f4efe6" opacity="0.29"/><circle cx="752" cy="171" r="0.8" fill="#f4efe6" opacity="0.4"/><circle cx="95" cy="42" r="1.8" fill="#f4efe6" opacity="0.51"/><circle cx="168" cy="83" r="2.8" fill="#f4efe6" opacity="0.18"/><circle cx="241" cy="124" r="0.8" fill="#f4efe6" opacity="0.29"/><circle cx="314" cy="165" r="1.8" fill="#f4efe6" opacity="0.4"/><circle cx="387" cy="36" r="2.8" fill="#f4efe6" opacity="0.51"/><circle cx="460" cy="77" r="0.8" fill="#f4efe6" opacity="0.18"/><circle cx="533" cy="118" r="1.8" fill="#f4efe6" opacity="0.29"/><circle cx="606" cy="159" r="2.8" fill="#f4efe6" opacity="0.4"/><circle cx="679" cy="30" r="0.8" fill="#f4efe6" opacity="0.51"/><circle cx="752" cy="71" r="1.8" fill="#f4efe6" opacity="0.18"/><circle cx="95" cy="112" r="2.8" fill="#f4efe6" opacity="0.29"/><circle cx="168" cy="153" r="0.8" fill="#f4efe6" opacity="0.4"/><circle cx="241" cy="24" r="1.8" fill="#f4efe6" opacity="0.51"/><circle cx="314" cy="65" r="2.8" fill="#f4efe6" opacity="0.18"/><circle cx="387" cy="106" r="0.8" fill="#f4efe6" opacity="0.29"/><circle cx="460" cy="147" r="1.8" fill="#f4efe6" opacity="0.4"/><circle cx="533" cy="188" r="2.8" fill="#f4efe6" opacity="0.51"/><circle cx="606" cy="59" r="0.8" fill="#f4efe6" opacity="0.18"/><circle cx="679" cy="100" r="1.8" fill="#f4efe6" opacity="0.29"/><path d="M0 405 C145 360 280 388 402 338 C546 280 665 318 800 270 L800 560 L0 560 Z" fill="#363833" opacity="0.35"/><rect x="172" y="122" width="454" height="300" fill="#f4efe6" opacity="0.13"/><rect x="202" y="104" width="396" height="318" fill="#363833" opacity="0.9"/><rect x="234" y="142" width="330" height="280" fill="#d9d5ca" opacity="0.94"/><rect x="210" y="132" width="8" height="285" fill="#9c8159" opacity="0.42"/><rect x="252" y="132" width="8" height="285" fill="#9c8159" opacity="0.54"/><rect x="294" y="132" width="8" height="285" fill="#9c8159" opacity="0.6599999999999999"/><rect x="336" y="132" width="8" height="285" fill="#9c8159" opacity="0.42"/><rect x="378" y="132" width="8" height="285" fill="#9c8159" opacity="0.54"/><rect x="420" y="132" width="8" height="285" fill="#9c8159" opacity="0.6599999999999999"/><rect x="462" y="132" width="8" height="285" fill="#9c8159" opacity="0.42"/><rect x="504" y="132" width="8" height="285" fill="#9c8159" opacity="0.54"/><rect x="546" y="132" width="8" height="285" fill="#9c8159" opacity="0.6599999999999999"/><rect x="245" y="178" width="42" height="58" fill="#fff1bf" opacity="0.82"/><line x1="266" y1="178" x2="266" y2="236" stroke="#363833" opacity="0.35"/><rect x="321" y="178" width="42" height="58" fill="#fff1bf" opacity="0.82"/><line x1="342" y1="178" x2="342" y2="236" stroke="#363833" opacity="0.35"/><rect x="397" y="178" width="42" height="58" fill="#363833" opacity="0.5"/><line x1="418" y1="178" x2="418" y2="236" stroke="#363833" opacity="0.35"/><rect x="473" y="178" width="42" height="58" fill="#fff1bf" opacity="0.82"/><line x1="494" y1="178" x2="494" y2="236" stroke="#363833" opacity="0.35"/><rect x="549" y="178" width="42" height="58" fill="#fff1bf" opacity="0.82"/><line x1="570" y1="178" x2="570" y2="236" stroke="#363833" opacity="0.35"/><rect x="245" y="286" width="42" height="58" fill="#363833" opacity="0.5"/><line x1="266" y1="286" x2="266" y2="344" stroke="#363833" opacity="0.35"/><rect x="321" y="286" width="42" height="58" fill="#fff1bf" opacity="0.82"/><line x1="342" y1="286" x2="342" y2="344" stroke="#363833" opacity="0.35"/><rect x="397" y="286" width="42" height="58" fill="#fff1bf" opacity="0.82"/><line x1="418" y1="286" x2="418" y2="344" stroke="#363833" opacity="0.35"/><rect x="473" y="286" width="42" height="58" fill="#363833" opacity="0.5"/><line x1="494" y1="286" x2="494" y2="344" stroke="#363833" opacity="0.35"/><rect x="549" y="286" width="42" height="58" fill="#fff1bf" opacity="0.82"/><line x1="570" y1="286" x2="570" y2="344" stroke="#363833" opacity="0.35"/><rect x="184" y="418" width="430" height="28" fill="#9c8159"/><rect x="132" y="445" width="536" height="42" fill="#363833"/><line x1="86" y1="488" x2="714" y2="488" stroke="#9c8159" stroke-width="3" opacity="0.72"/><rect width="800" height="560" fill="url(#v)"/><rect x="28" y="28" width="744" height="504" fill="none" stroke="#9c8159" stroke-opacity="0.35"/><text x="52" y="494" fill="#f4efe6" font-family="Inter, Arial, sans-serif" font-size="28" font-weight="600">Timber Screen Villa</text><text x="52" y="522" fill="#9c8159" font-family="JetBrains Mono, Consolas, monospace" font-size="14" letter-spacing="2">CONTEMPORARY DAY VIEW</text>
</svg>